<svg width="32" height="32" viewBox="0 0 32 32" fill="none" xmlns="http://www.w3.org/2000/svg">
<path d="M8.24952 26.3048H10.5138V24.0405H12.7633V21.791H15.0129V19.5415H17.2772V21.791H19.5267V24.0405H21.791V26.3048H24.0405V24.0405H26.29V21.791H24.0405V19.5415H21.791V17.2772H19.5267V15.0277H21.791V12.7781H24.0405V10.5138H26.29V8.26432H24.0405V6H21.791V8.26432H19.5267V10.5138H17.2772V12.7781H15.0129V10.5138H12.7633V8.26432H10.5138V6H8.24952V8.26432H6V10.5138H8.24952V12.7781H10.5138V15.0277H12.7633V17.2772H10.5138V19.5415H8.24952V21.791H6V24.0405H8.24952V26.3048Z" fill="#6E4FEB"/>
</svg>
