<svg width="32" height="32" viewBox="0 0 32 32" fill="none" xmlns="http://www.w3.org/2000/svg">
<path d="M25.1401 20.5703H6.86008V22.0903H5.33008V25.1403H6.86008V23.6203H25.1401V25.1403H26.6701V22.0903H25.1401V20.5703Z" fill="#6E4FEB"/>
<path d="M25.1401 12.9502H6.86008V14.4702H5.33008V17.5202H6.86008V16.0002H25.1401V17.5202H26.6701V14.4702H25.1401V12.9502Z" fill="#6E4FEB"/>
<path d="M25.1401 5.33008H6.86008V6.85008H5.33008V9.90008H6.86008V8.38008H25.1401V9.90008H26.6701V6.85008H25.1401V5.33008Z" fill="#6E4FEB"/>
<path d="M25.1401 25.1396H6.86011V26.6596H25.1401V25.1396Z" fill="#6E4FEB"/>
<path d="M25.1401 17.5205H6.86011V19.0405H25.1401V17.5205Z" fill="#6E4FEB"/>
<path d="M25.1401 9.90039H6.86011V11.4304H25.1401V9.90039Z" fill="#6E4FEB"/>
</svg>
